<mxfile host="app.diagrams.net" agent="Mozilla/5.0 (Windows NT 10.0; Win64; x64) AppleWebKit/537.36 (KHTML, like Gecko) Chrome/131.0.0.0 Safari/537.36" version="26.0.5">
  <diagram name="Page-1" id="e7e014a7-5840-1c2e-5031-d8a46d1fe8dd">
    <mxGraphModel dx="1050" dy="522" grid="1" gridSize="10" guides="1" tooltips="1" connect="1" arrows="1" fold="1" page="1" pageScale="1" pageWidth="1169" pageHeight="826" background="none" math="0" shadow="0">
      <root>
        <mxCell id="0" />
        <mxCell id="1" parent="0" />
        <mxCell id="2" value="Buchhaltung" style="swimlane;whiteSpace=wrap" parent="1" vertex="1">
          <mxGeometry x="164.5" y="128" width="280" height="692" as="geometry" />
        </mxCell>
        <mxCell id="KXrc22fBCxTj2hZ28zyN-57" value="Gehaltsabrechnung aufsetzen" style="points=[[0.25,0,0],[0.5,0,0],[0.75,0,0],[1,0.25,0],[1,0.5,0],[1,0.75,0],[0.75,1,0],[0.5,1,0],[0.25,1,0],[0,0.75,0],[0,0.5,0],[0,0.25,0]];shape=mxgraph.bpmn.task;whiteSpace=wrap;rectStyle=rounded;size=10;html=1;container=1;expand=0;collapsible=0;taskMarker=abstract;" vertex="1" parent="2">
          <mxGeometry x="80" y="407" width="120" height="80" as="geometry" />
        </mxCell>
        <mxCell id="3" value="Personal Chef" style="swimlane;whiteSpace=wrap;startSize=23;" parent="1" vertex="1">
          <mxGeometry x="444.5" y="128" width="280" height="692" as="geometry" />
        </mxCell>
        <mxCell id="KXrc22fBCxTj2hZ28zyN-41" value="Stellenausschreibung erstellen" style="points=[[0.25,0,0],[0.5,0,0],[0.75,0,0],[1,0.25,0],[1,0.5,0],[1,0.75,0],[0.75,1,0],[0.5,1,0],[0.25,1,0],[0,0.75,0],[0,0.5,0],[0,0.25,0]];shape=mxgraph.bpmn.task;whiteSpace=wrap;rectStyle=rounded;size=10;html=1;container=1;expand=0;collapsible=0;taskMarker=abstract;" vertex="1" parent="3">
          <mxGeometry x="74.5" y="142" width="131.75" height="78" as="geometry" />
        </mxCell>
        <mxCell id="KXrc22fBCxTj2hZ28zyN-42" value="Start" style="points=[[0.145,0.145,0],[0.5,0,0],[0.855,0.145,0],[1,0.5,0],[0.855,0.855,0],[0.5,1,0],[0.145,0.855,0],[0,0.5,0]];shape=mxgraph.bpmn.event;html=1;verticalLabelPosition=bottom;labelBackgroundColor=#ffffff;verticalAlign=top;align=center;perimeter=ellipsePerimeter;outlineConnect=0;aspect=fixed;outline=standard;symbol=general;" vertex="1" parent="3">
          <mxGeometry x="115.5" y="42" width="50" height="50" as="geometry" />
        </mxCell>
        <mxCell id="KXrc22fBCxTj2hZ28zyN-43" style="edgeStyle=orthogonalEdgeStyle;rounded=0;orthogonalLoop=1;jettySize=auto;html=1;entryX=0.5;entryY=0;entryDx=0;entryDy=0;entryPerimeter=0;" edge="1" parent="3" source="KXrc22fBCxTj2hZ28zyN-42" target="KXrc22fBCxTj2hZ28zyN-41">
          <mxGeometry relative="1" as="geometry" />
        </mxCell>
        <mxCell id="KXrc22fBCxTj2hZ28zyN-49" value="Bewerbungsgespräche führen" style="points=[[0.25,0,0],[0.5,0,0],[0.75,0,0],[1,0.25,0],[1,0.5,0],[1,0.75,0],[0.75,1,0],[0.5,1,0],[0.25,1,0],[0,0.75,0],[0,0.5,0],[0,0.25,0]];shape=mxgraph.bpmn.task;whiteSpace=wrap;rectStyle=rounded;size=10;html=1;container=1;expand=0;collapsible=0;taskMarker=abstract;" vertex="1" parent="3">
          <mxGeometry x="74.5" y="292" width="134.5" height="80" as="geometry" />
        </mxCell>
        <mxCell id="KXrc22fBCxTj2hZ28zyN-52" value="Kandidaten gefunden?" style="points=[[0.25,0.25,0],[0.5,0,0],[0.75,0.25,0],[1,0.5,0],[0.75,0.75,0],[0.5,1,0],[0.25,0.75,0],[0,0.5,0]];shape=mxgraph.bpmn.gateway2;html=1;verticalLabelPosition=bottom;labelBackgroundColor=#ffffff;verticalAlign=top;align=center;perimeter=rhombusPerimeter;outlineConnect=0;outline=none;symbol=none;gwType=exclusive;" vertex="1" parent="3">
          <mxGeometry x="116.75" y="422" width="50" height="50" as="geometry" />
        </mxCell>
        <mxCell id="KXrc22fBCxTj2hZ28zyN-53" style="edgeStyle=orthogonalEdgeStyle;rounded=0;orthogonalLoop=1;jettySize=auto;html=1;entryX=0.5;entryY=0;entryDx=0;entryDy=0;entryPerimeter=0;" edge="1" parent="3" source="KXrc22fBCxTj2hZ28zyN-49" target="KXrc22fBCxTj2hZ28zyN-52">
          <mxGeometry relative="1" as="geometry" />
        </mxCell>
        <mxCell id="KXrc22fBCxTj2hZ28zyN-62" style="edgeStyle=orthogonalEdgeStyle;rounded=0;orthogonalLoop=1;jettySize=auto;html=1;" edge="1" parent="3" source="KXrc22fBCxTj2hZ28zyN-59" target="KXrc22fBCxTj2hZ28zyN-61">
          <mxGeometry relative="1" as="geometry" />
        </mxCell>
        <mxCell id="KXrc22fBCxTj2hZ28zyN-59" value="Einführung des neuen Mitarbeiters" style="points=[[0.25,0,0],[0.5,0,0],[0.75,0,0],[1,0.25,0],[1,0.5,0],[1,0.75,0],[0.75,1,0],[0.5,1,0],[0.25,1,0],[0,0.75,0],[0,0.5,0],[0,0.25,0]];shape=mxgraph.bpmn.task;whiteSpace=wrap;rectStyle=rounded;size=10;html=1;container=1;expand=0;collapsible=0;taskMarker=abstract;" vertex="1" parent="3">
          <mxGeometry x="72.63" y="512" width="138.25" height="80" as="geometry" />
        </mxCell>
        <mxCell id="KXrc22fBCxTj2hZ28zyN-61" value="Ende" style="points=[[0.145,0.145,0],[0.5,0,0],[0.855,0.145,0],[1,0.5,0],[0.855,0.855,0],[0.5,1,0],[0.145,0.855,0],[0,0.5,0]];shape=mxgraph.bpmn.event;html=1;verticalLabelPosition=bottom;labelBackgroundColor=#ffffff;verticalAlign=top;align=center;perimeter=ellipsePerimeter;outlineConnect=0;aspect=fixed;outline=end;symbol=terminate2;" vertex="1" parent="3">
          <mxGeometry x="116.76" y="612" width="50" height="50" as="geometry" />
        </mxCell>
        <mxCell id="4" value="HR" style="swimlane;whiteSpace=wrap" parent="1" vertex="1">
          <mxGeometry x="724.5" y="128" width="280" height="692" as="geometry" />
        </mxCell>
        <mxCell id="KXrc22fBCxTj2hZ28zyN-47" value="Kandidaten finden" style="points=[[0.25,0,0],[0.5,0,0],[0.75,0,0],[1,0.25,0],[1,0.5,0],[1,0.75,0],[0.75,1,0],[0.5,1,0],[0.25,1,0],[0,0.75,0],[0,0.5,0],[0,0.25,0]];shape=mxgraph.bpmn.task;whiteSpace=wrap;rectStyle=rounded;size=10;html=1;container=1;expand=0;collapsible=0;taskMarker=abstract;" vertex="1" parent="4">
          <mxGeometry x="80" y="141" width="120" height="80" as="geometry" />
        </mxCell>
        <mxCell id="KXrc22fBCxTj2hZ28zyN-48" style="edgeStyle=orthogonalEdgeStyle;rounded=0;orthogonalLoop=1;jettySize=auto;html=1;entryX=0;entryY=0.5;entryDx=0;entryDy=0;entryPerimeter=0;" edge="1" parent="1" source="KXrc22fBCxTj2hZ28zyN-41" target="KXrc22fBCxTj2hZ28zyN-47">
          <mxGeometry relative="1" as="geometry" />
        </mxCell>
        <mxCell id="KXrc22fBCxTj2hZ28zyN-50" style="edgeStyle=orthogonalEdgeStyle;rounded=0;orthogonalLoop=1;jettySize=auto;html=1;entryX=0.5;entryY=0;entryDx=0;entryDy=0;entryPerimeter=0;" edge="1" parent="1" source="KXrc22fBCxTj2hZ28zyN-47" target="KXrc22fBCxTj2hZ28zyN-49">
          <mxGeometry relative="1" as="geometry">
            <Array as="points">
              <mxPoint x="865" y="380" />
              <mxPoint x="586" y="380" />
            </Array>
          </mxGeometry>
        </mxCell>
        <mxCell id="KXrc22fBCxTj2hZ28zyN-55" style="edgeStyle=orthogonalEdgeStyle;rounded=0;orthogonalLoop=1;jettySize=auto;html=1;entryX=0.75;entryY=1;entryDx=0;entryDy=0;entryPerimeter=0;" edge="1" parent="1" source="KXrc22fBCxTj2hZ28zyN-52" target="KXrc22fBCxTj2hZ28zyN-47">
          <mxGeometry relative="1" as="geometry" />
        </mxCell>
        <mxCell id="KXrc22fBCxTj2hZ28zyN-56" value="NEIN" style="edgeLabel;html=1;align=center;verticalAlign=middle;resizable=0;points=[];" vertex="1" connectable="0" parent="KXrc22fBCxTj2hZ28zyN-55">
          <mxGeometry x="-0.741" y="1" relative="1" as="geometry">
            <mxPoint as="offset" />
          </mxGeometry>
        </mxCell>
        <mxCell id="KXrc22fBCxTj2hZ28zyN-58" style="edgeStyle=orthogonalEdgeStyle;rounded=0;orthogonalLoop=1;jettySize=auto;html=1;entryX=1;entryY=0.5;entryDx=0;entryDy=0;entryPerimeter=0;" edge="1" parent="1" source="KXrc22fBCxTj2hZ28zyN-52" target="KXrc22fBCxTj2hZ28zyN-57">
          <mxGeometry relative="1" as="geometry" />
        </mxCell>
        <mxCell id="KXrc22fBCxTj2hZ28zyN-63" value="JA" style="edgeLabel;html=1;align=center;verticalAlign=middle;resizable=0;points=[];" vertex="1" connectable="0" parent="KXrc22fBCxTj2hZ28zyN-58">
          <mxGeometry x="-0.0643" y="-4" relative="1" as="geometry">
            <mxPoint as="offset" />
          </mxGeometry>
        </mxCell>
        <mxCell id="KXrc22fBCxTj2hZ28zyN-60" style="edgeStyle=orthogonalEdgeStyle;rounded=0;orthogonalLoop=1;jettySize=auto;html=1;entryX=0;entryY=0.5;entryDx=0;entryDy=0;entryPerimeter=0;exitX=0.5;exitY=1;exitDx=0;exitDy=0;exitPerimeter=0;" edge="1" parent="1" source="KXrc22fBCxTj2hZ28zyN-57" target="KXrc22fBCxTj2hZ28zyN-59">
          <mxGeometry relative="1" as="geometry">
            <Array as="points">
              <mxPoint x="305" y="680" />
            </Array>
          </mxGeometry>
        </mxCell>
      </root>
    </mxGraphModel>
  </diagram>
</mxfile>
